<svg viewBox="0 0 774 875" xmlns="http://www.w3.org/2000/svg"><path fill="#8ed6fb" d="M750.1,670.2l-347.8,196.8l0,-153.2l216.7,-119.2l131.1,75.7Zm23.8,-21.5l0,-411.5l-127.2,73.5l0,264.5l127.2,73.4Zm-750.1,21.5l347.8,196.8l0,-153.2l-216.8,-119.2l-131.0,75.7Zm-23.8,-21.5l0,-411.5l127.2,73.5l0,264.5l-127.2,73.4Zm14.9,-438.1l356.7,-201.8l0,148.1l-228.6,125.7l-1.8,1.0l-126.3,-73.0Zm744.1,0l-356.7,-201.8l0,148.1l228.6,125.6l1.8,1.0l126.3,-72.9Z"/><path fill="#1c78c0" d="M371.7,678.8l-213.9,-117.6l0,-232.9l213.9,123.4l0,227.1Zm30.5,0l213.9,-117.5l0,-233.0l-213.9,123.4l0,227.1Zm-229.9,-377.5l214.7,-118.0l214.7,118.0l-214.7,123.9l-214.7,-123.9Z"/></svg>